<svg width="152" height="152" viewBox="0 0 152 152" fill="none" xmlns="http://www.w3.org/2000/svg">
<g clip-path="url(#clip0_2111_16)">
<rect width="151.254" height="151.254" rx="27.8168" fill="#F2F2F2"/>
<g filter="url(#filter0_d_2111_16)">
<rect x="22.2539" y="21.9062" width="107.095" height="107.443" rx="31.2939" fill="#1F1F1F"/>
<path d="M74.3416 106.033C73.6452 106.033 73.0221 105.875 72.4723 105.557C71.9347 105.239 71.5132 104.775 71.2077 104.164C70.9023 103.541 70.7495 102.783 70.7495 101.892V96.7783C70.7495 96.6439 70.7923 96.534 70.8778 96.4484C70.9634 96.3629 71.0733 96.3202 71.2077 96.3202H73.4986C73.633 96.3202 73.7429 96.3629 73.8284 96.4484C73.914 96.534 73.9567 96.6439 73.9567 96.7783V101.782C73.9567 102.979 74.4943 103.578 75.5695 103.578C76.0704 103.578 76.4675 103.425 76.7607 103.119C77.0662 102.802 77.2189 102.356 77.2189 101.782V96.7783C77.2189 96.6439 77.2617 96.534 77.3472 96.4484C77.4327 96.3629 77.5427 96.3202 77.6771 96.3202H79.9679C80.1023 96.3202 80.2123 96.3629 80.2978 96.4484C80.3833 96.534 80.4261 96.6439 80.4261 96.7783V105.392C80.4261 105.526 80.3833 105.636 80.2978 105.722C80.2123 105.807 80.1023 105.85 79.9679 105.85H77.842C77.7198 105.85 77.6099 105.807 77.5121 105.722C77.4266 105.636 77.3838 105.526 77.3838 105.392V104.696C77.0662 105.135 76.6508 105.471 76.1376 105.703C75.6367 105.923 75.038 106.033 74.3416 106.033ZM83.04 105.85C82.9056 105.85 82.7956 105.807 82.7101 105.722C82.6245 105.636 82.5818 105.526 82.5818 105.392V93.2962C82.5818 93.1618 82.6245 93.0519 82.7101 92.9664C82.7956 92.8808 82.9056 92.8381 83.04 92.8381H85.2025C85.3369 92.8381 85.4469 92.8808 85.5324 92.9664C85.6179 93.0519 85.6607 93.1618 85.6607 93.2962V105.392C85.6607 105.526 85.6179 105.636 85.5324 105.722C85.4469 105.807 85.3369 105.85 85.2025 105.85H83.04ZM92.7006 105.85C91.9187 105.85 91.2406 105.728 90.6663 105.484C90.1043 105.227 89.6706 104.836 89.3651 104.311C89.0597 103.773 88.907 103.083 88.907 102.24V98.721H87.4775C87.3431 98.721 87.227 98.6782 87.1293 98.5927C87.0437 98.5072 87.001 98.3972 87.001 98.2628V96.7783C87.001 96.6439 87.0437 96.534 87.1293 96.4484C87.227 96.3629 87.3431 96.3202 87.4775 96.3202H88.907V93.2962C88.907 93.1618 88.9497 93.0519 89.0353 92.9664C89.133 92.8808 89.243 92.8381 89.3651 92.8381H91.491C91.6254 92.8381 91.7354 92.8808 91.8209 92.9664C91.9065 93.0519 91.9492 93.1618 91.9492 93.2962V96.3202H94.2401C94.3745 96.3202 94.4844 96.3629 94.5699 96.4484C94.6555 96.534 94.6982 96.6439 94.6982 96.7783V98.2628C94.6982 98.3972 94.6555 98.5072 94.5699 98.5927C94.4844 98.6782 94.3745 98.721 94.2401 98.721H91.9492V101.983C91.9492 102.399 92.0286 102.728 92.1875 102.973C92.3463 103.217 92.6151 103.339 92.9938 103.339H94.405C94.5394 103.339 94.6494 103.382 94.7349 103.468C94.8204 103.553 94.8632 103.663 94.8632 103.797V105.392C94.8632 105.526 94.8204 105.636 94.7349 105.722C94.6494 105.807 94.5394 105.85 94.405 105.85H92.7006Z" fill="#50C0C2"/>
<path fill-rule="evenodd" clip-rule="evenodd" d="M65.9938 48.4832C61.9452 48.4832 58.6631 51.7652 58.6631 55.8139V86.0579C58.6631 86.1596 58.6769 86.2581 58.7027 86.3515V101.199C58.7027 103.879 60.8757 106.052 63.5562 106.052C66.2366 106.052 68.4096 103.879 68.4096 101.199V87.1576H87.4953C91.5439 87.1576 94.826 83.8755 94.826 79.8268V55.8139C94.826 51.7652 91.5439 48.4832 87.4953 48.4832H65.9938Z" fill="url(#paint0_linear_2111_16)"/>
<g filter="url(#filter1_d_2111_16)">
<path d="M51.1143 87.46H79.3232C79.9302 87.46 80.5435 87.4304 81.1343 87.2908C87.7792 85.7208 87.6507 78.1807 84.5491 75.596C81.5445 73.0922 71.5647 66.4033 70.1549 65.4608C70.0402 65.3842 69.9317 65.3104 69.822 65.2268C66.1993 62.4657 65.7711 56.2877 72.1458 53.1003L85.0883 45.5505" stroke="white" stroke-width="6.96418"/>
</g>
</g>
</g>
<defs>
<filter id="filter0_d_2111_16" x="18.7768" y="21.9062" width="127.957" height="131.782" filterUnits="userSpaceOnUse" color-interpolation-filters="sRGB">
<feFlood flood-opacity="0" result="BackgroundImageFix"/>
<feColorMatrix in="SourceAlpha" type="matrix" values="0 0 0 0 0 0 0 0 0 0 0 0 0 0 0 0 0 0 127 0" result="hardAlpha"/>
<feMorphology radius="3.4771" operator="erode" in="SourceAlpha" result="effect1_dropShadow_2111_16"/>
<feOffset dx="6.95421" dy="13.9084"/>
<feGaussianBlur stdDeviation="6.95421"/>
<feComposite in2="hardAlpha" operator="out"/>
<feColorMatrix type="matrix" values="0 0 0 0 0 0 0 0 0 0 0 0 0 0 0 0 0 0 0.18 0"/>
<feBlend mode="normal" in2="BackgroundImageFix" result="effect1_dropShadow_2111_16"/>
<feBlend mode="normal" in="SourceGraphic" in2="effect1_dropShadow_2111_16" result="shape"/>
</filter>
<filter id="filter1_d_2111_16" x="43.7835" y="42.1762" width="53.6302" height="63.0609" filterUnits="userSpaceOnUse" color-interpolation-filters="sRGB">
<feFlood flood-opacity="0" result="BackgroundImageFix"/>
<feColorMatrix in="SourceAlpha" type="matrix" values="0 0 0 0 0 0 0 0 0 0 0 0 0 0 0 0 0 0 127 0" result="hardAlpha"/>
<feOffset dy="6.96418"/>
<feGaussianBlur stdDeviation="3.66536"/>
<feColorMatrix type="matrix" values="0 0 0 0 0 0 0 0 0 0 0 0 0 0 0 0 0 0 0.29 0"/>
<feBlend mode="normal" in2="BackgroundImageFix" result="effect1_dropShadow_2111_16"/>
<feBlend mode="normal" in="SourceGraphic" in2="effect1_dropShadow_2111_16" result="shape"/>
</filter>
<linearGradient id="paint0_linear_2111_16" x1="53.8096" y1="45.7798" x2="95.4826" y2="107.857" gradientUnits="userSpaceOnUse">
<stop stop-color="#86DAB9"/>
<stop offset="1" stop-color="#36B3C5"/>
</linearGradient>
<clipPath id="clip0_2111_16">
<rect width="151.254" height="151.254" rx="27.8168" fill="white"/>
</clipPath>
</defs>
</svg>
